<svg xmlns="http://www.w3.org/2000/svg" viewBox="0 0 2000 600" preserveAspectRatio="xMidYMid slice" aria-hidden="true">
  <rect width="2000" height="600" fill="#0F1B2D"/>
  <g>
<circle cx="250" cy="300" r="24" fill="none" stroke="#3D6491" stroke-width="1" stroke-opacity="0.54"/>
<circle cx="250" cy="300" r="31" fill="none" stroke="#3D6491" stroke-width="1" stroke-opacity="0.532"/>
<circle cx="250" cy="300" r="38" fill="none" stroke="#3D6491" stroke-width="1" stroke-opacity="0.523"/>
<circle cx="250" cy="300" r="45" fill="none" stroke="#3D6491" stroke-width="1" stroke-opacity="0.515"/>
<circle cx="250" cy="300" r="52" fill="none" stroke="#3D6491" stroke-width="1" stroke-opacity="0.507"/>
<circle cx="250" cy="300" r="59" fill="none" stroke="#3D6491" stroke-width="1" stroke-opacity="0.498"/>
<circle cx="250" cy="300" r="66" fill="none" stroke="#3D6491" stroke-width="1" stroke-opacity="0.49"/>
<circle cx="250" cy="300" r="73" fill="none" stroke="#3D6491" stroke-width="1" stroke-opacity="0.482"/>
<circle cx="250" cy="300" r="80" fill="none" stroke="#3D6491" stroke-width="1" stroke-opacity="0.473"/>
<circle cx="250" cy="300" r="87" fill="none" stroke="#3D6491" stroke-width="1" stroke-opacity="0.465"/>
<circle cx="250" cy="300" r="94" fill="none" stroke="#3D6491" stroke-width="1" stroke-opacity="0.457"/>
<circle cx="250" cy="300" r="101" fill="none" stroke="#3D6491" stroke-width="1" stroke-opacity="0.448"/>
<circle cx="250" cy="300" r="108" fill="none" stroke="#3D6491" stroke-width="1" stroke-opacity="0.44"/>
<circle cx="250" cy="300" r="115" fill="none" stroke="#3D6491" stroke-width="1" stroke-opacity="0.432"/>
<circle cx="250" cy="300" r="122" fill="none" stroke="#3D6491" stroke-width="1" stroke-opacity="0.423"/>
<circle cx="250" cy="300" r="129" fill="none" stroke="#3D6491" stroke-width="1" stroke-opacity="0.415"/>
<circle cx="250" cy="300" r="136" fill="none" stroke="#3D6491" stroke-width="1" stroke-opacity="0.407"/>
<circle cx="250" cy="300" r="143" fill="none" stroke="#3D6491" stroke-width="1" stroke-opacity="0.398"/>
<circle cx="250" cy="300" r="150" fill="none" stroke="#3D6491" stroke-width="1" stroke-opacity="0.39"/>
<circle cx="250" cy="300" r="157" fill="none" stroke="#3D6491" stroke-width="1" stroke-opacity="0.382"/>
<circle cx="250" cy="300" r="164" fill="none" stroke="#3D6491" stroke-width="1" stroke-opacity="0.373"/>
<circle cx="250" cy="300" r="171" fill="none" stroke="#3D6491" stroke-width="1" stroke-opacity="0.365"/>
<circle cx="250" cy="300" r="178" fill="none" stroke="#3D6491" stroke-width="1" stroke-opacity="0.357"/>
<circle cx="250" cy="300" r="185" fill="none" stroke="#3D6491" stroke-width="1" stroke-opacity="0.348"/>
<circle cx="250" cy="300" r="192" fill="none" stroke="#3D6491" stroke-width="1" stroke-opacity="0.34"/>
<circle cx="250" cy="300" r="199" fill="none" stroke="#3D6491" stroke-width="1" stroke-opacity="0.332"/>
<circle cx="250" cy="300" r="206" fill="none" stroke="#3D6491" stroke-width="1" stroke-opacity="0.323"/>
<circle cx="250" cy="300" r="213" fill="none" stroke="#3D6491" stroke-width="1" stroke-opacity="0.315"/>
<circle cx="250" cy="300" r="220" fill="none" stroke="#3D6491" stroke-width="1" stroke-opacity="0.307"/>
<circle cx="250" cy="300" r="227" fill="none" stroke="#3D6491" stroke-width="1" stroke-opacity="0.298"/>
<circle cx="250" cy="300" r="234" fill="none" stroke="#3D6491" stroke-width="1" stroke-opacity="0.29"/>
<circle cx="250" cy="300" r="241" fill="none" stroke="#3D6491" stroke-width="1" stroke-opacity="0.282"/>
<circle cx="250" cy="300" r="248" fill="none" stroke="#3D6491" stroke-width="1" stroke-opacity="0.273"/>
<circle cx="250" cy="300" r="255" fill="none" stroke="#3D6491" stroke-width="1" stroke-opacity="0.265"/>
<circle cx="250" cy="300" r="262" fill="none" stroke="#3D6491" stroke-width="1" stroke-opacity="0.257"/>
<circle cx="250" cy="300" r="269" fill="none" stroke="#3D6491" stroke-width="1" stroke-opacity="0.248"/>
<circle cx="250" cy="300" r="276" fill="none" stroke="#3D6491" stroke-width="1" stroke-opacity="0.24"/>
<circle cx="250" cy="300" r="283" fill="none" stroke="#3D6491" stroke-width="1" stroke-opacity="0.232"/>
<circle cx="250" cy="300" r="290" fill="none" stroke="#3D6491" stroke-width="1" stroke-opacity="0.223"/>
<circle cx="250" cy="300" r="297" fill="none" stroke="#3D6491" stroke-width="1" stroke-opacity="0.215"/>
<circle cx="250" cy="300" r="304" fill="none" stroke="#3D6491" stroke-width="1" stroke-opacity="0.207"/>
<circle cx="250" cy="300" r="311" fill="none" stroke="#3D6491" stroke-width="1" stroke-opacity="0.198"/>
<circle cx="250" cy="300" r="318" fill="none" stroke="#3D6491" stroke-width="1" stroke-opacity="0.19"/>
<circle cx="250" cy="300" r="325" fill="none" stroke="#3D6491" stroke-width="1" stroke-opacity="0.182"/>
<circle cx="250" cy="300" r="332" fill="none" stroke="#3D6491" stroke-width="1" stroke-opacity="0.173"/>
<circle cx="250" cy="300" r="339" fill="none" stroke="#3D6491" stroke-width="1" stroke-opacity="0.165"/>
<circle cx="250" cy="300" r="346" fill="none" stroke="#3D6491" stroke-width="1" stroke-opacity="0.157"/>
<circle cx="250" cy="300" r="353" fill="none" stroke="#3D6491" stroke-width="1" stroke-opacity="0.148"/>
<circle cx="250" cy="300" r="360" fill="none" stroke="#3D6491" stroke-width="1" stroke-opacity="0.14"/>
<circle cx="250" cy="300" r="367" fill="none" stroke="#3D6491" stroke-width="1" stroke-opacity="0.132"/>
<circle cx="250" cy="300" r="374" fill="none" stroke="#3D6491" stroke-width="1" stroke-opacity="0.123"/>
<circle cx="250" cy="300" r="381" fill="none" stroke="#3D6491" stroke-width="1" stroke-opacity="0.115"/>
<circle cx="250" cy="300" r="388" fill="none" stroke="#3D6491" stroke-width="1" stroke-opacity="0.107"/>
<circle cx="250" cy="300" r="395" fill="none" stroke="#3D6491" stroke-width="1" stroke-opacity="0.098"/>
<circle cx="250" cy="300" r="402" fill="none" stroke="#3D6491" stroke-width="1" stroke-opacity="0.09"/>
<circle cx="250" cy="300" r="409" fill="none" stroke="#3D6491" stroke-width="1" stroke-opacity="0.082"/>
<circle cx="250" cy="300" r="416" fill="none" stroke="#3D6491" stroke-width="1" stroke-opacity="0.073"/>
<circle cx="250" cy="300" r="423" fill="none" stroke="#3D6491" stroke-width="1" stroke-opacity="0.065"/>
<circle cx="250" cy="300" r="430" fill="none" stroke="#3D6491" stroke-width="1" stroke-opacity="0.057"/>
<circle cx="250" cy="300" r="437" fill="none" stroke="#3D6491" stroke-width="1" stroke-opacity="0.048"/>
  </g>
  <g>
<circle cx="1760" cy="140" r="18" fill="none" stroke="#3D6491" stroke-width="1" stroke-opacity="0.49"/>
<circle cx="1760" cy="140" r="25" fill="none" stroke="#3D6491" stroke-width="1" stroke-opacity="0.481"/>
<circle cx="1760" cy="140" r="32" fill="none" stroke="#3D6491" stroke-width="1" stroke-opacity="0.471"/>
<circle cx="1760" cy="140" r="39" fill="none" stroke="#3D6491" stroke-width="1" stroke-opacity="0.462"/>
<circle cx="1760" cy="140" r="46" fill="none" stroke="#3D6491" stroke-width="1" stroke-opacity="0.452"/>
<circle cx="1760" cy="140" r="53" fill="none" stroke="#3D6491" stroke-width="1" stroke-opacity="0.443"/>
<circle cx="1760" cy="140" r="60" fill="none" stroke="#3D6491" stroke-width="1" stroke-opacity="0.434"/>
<circle cx="1760" cy="140" r="67" fill="none" stroke="#3D6491" stroke-width="1" stroke-opacity="0.424"/>
<circle cx="1760" cy="140" r="74" fill="none" stroke="#3D6491" stroke-width="1" stroke-opacity="0.415"/>
<circle cx="1760" cy="140" r="81" fill="none" stroke="#3D6491" stroke-width="1" stroke-opacity="0.406"/>
<circle cx="1760" cy="140" r="88" fill="none" stroke="#3D6491" stroke-width="1" stroke-opacity="0.396"/>
<circle cx="1760" cy="140" r="95" fill="none" stroke="#3D6491" stroke-width="1" stroke-opacity="0.387"/>
<circle cx="1760" cy="140" r="102" fill="none" stroke="#3D6491" stroke-width="1" stroke-opacity="0.378"/>
<circle cx="1760" cy="140" r="109" fill="none" stroke="#3D6491" stroke-width="1" stroke-opacity="0.368"/>
<circle cx="1760" cy="140" r="116" fill="none" stroke="#3D6491" stroke-width="1" stroke-opacity="0.359"/>
<circle cx="1760" cy="140" r="123" fill="none" stroke="#3D6491" stroke-width="1" stroke-opacity="0.349"/>
<circle cx="1760" cy="140" r="130" fill="none" stroke="#3D6491" stroke-width="1" stroke-opacity="0.34"/>
<circle cx="1760" cy="140" r="137" fill="none" stroke="#3D6491" stroke-width="1" stroke-opacity="0.331"/>
<circle cx="1760" cy="140" r="144" fill="none" stroke="#3D6491" stroke-width="1" stroke-opacity="0.321"/>
<circle cx="1760" cy="140" r="151" fill="none" stroke="#3D6491" stroke-width="1" stroke-opacity="0.312"/>
<circle cx="1760" cy="140" r="158" fill="none" stroke="#3D6491" stroke-width="1" stroke-opacity="0.302"/>
<circle cx="1760" cy="140" r="165" fill="none" stroke="#3D6491" stroke-width="1" stroke-opacity="0.293"/>
<circle cx="1760" cy="140" r="172" fill="none" stroke="#3D6491" stroke-width="1" stroke-opacity="0.284"/>
<circle cx="1760" cy="140" r="179" fill="none" stroke="#3D6491" stroke-width="1" stroke-opacity="0.274"/>
<circle cx="1760" cy="140" r="186" fill="none" stroke="#3D6491" stroke-width="1" stroke-opacity="0.265"/>
<circle cx="1760" cy="140" r="193" fill="none" stroke="#3D6491" stroke-width="1" stroke-opacity="0.256"/>
<circle cx="1760" cy="140" r="200" fill="none" stroke="#3D6491" stroke-width="1" stroke-opacity="0.246"/>
<circle cx="1760" cy="140" r="207" fill="none" stroke="#3D6491" stroke-width="1" stroke-opacity="0.237"/>
<circle cx="1760" cy="140" r="214" fill="none" stroke="#3D6491" stroke-width="1" stroke-opacity="0.228"/>
<circle cx="1760" cy="140" r="221" fill="none" stroke="#3D6491" stroke-width="1" stroke-opacity="0.218"/>
<circle cx="1760" cy="140" r="228" fill="none" stroke="#3D6491" stroke-width="1" stroke-opacity="0.209"/>
<circle cx="1760" cy="140" r="235" fill="none" stroke="#3D6491" stroke-width="1" stroke-opacity="0.199"/>
<circle cx="1760" cy="140" r="242" fill="none" stroke="#3D6491" stroke-width="1" stroke-opacity="0.19"/>
<circle cx="1760" cy="140" r="249" fill="none" stroke="#3D6491" stroke-width="1" stroke-opacity="0.181"/>
<circle cx="1760" cy="140" r="256" fill="none" stroke="#3D6491" stroke-width="1" stroke-opacity="0.171"/>
<circle cx="1760" cy="140" r="263" fill="none" stroke="#3D6491" stroke-width="1" stroke-opacity="0.162"/>
<circle cx="1760" cy="140" r="270" fill="none" stroke="#3D6491" stroke-width="1" stroke-opacity="0.152"/>
<circle cx="1760" cy="140" r="277" fill="none" stroke="#3D6491" stroke-width="1" stroke-opacity="0.143"/>
<circle cx="1760" cy="140" r="284" fill="none" stroke="#3D6491" stroke-width="1" stroke-opacity="0.134"/>
<circle cx="1760" cy="140" r="291" fill="none" stroke="#3D6491" stroke-width="1" stroke-opacity="0.124"/>
<circle cx="1760" cy="140" r="298" fill="none" stroke="#3D6491" stroke-width="1" stroke-opacity="0.115"/>
<circle cx="1760" cy="140" r="305" fill="none" stroke="#3D6491" stroke-width="1" stroke-opacity="0.106"/>
<circle cx="1760" cy="140" r="312" fill="none" stroke="#3D6491" stroke-width="1" stroke-opacity="0.096"/>
<circle cx="1760" cy="140" r="319" fill="none" stroke="#3D6491" stroke-width="1" stroke-opacity="0.087"/>
<circle cx="1760" cy="140" r="326" fill="none" stroke="#3D6491" stroke-width="1" stroke-opacity="0.078"/>
<circle cx="1760" cy="140" r="333" fill="none" stroke="#3D6491" stroke-width="1" stroke-opacity="0.068"/>
<circle cx="1760" cy="140" r="340" fill="none" stroke="#3D6491" stroke-width="1" stroke-opacity="0.059"/>
<circle cx="1760" cy="140" r="347" fill="none" stroke="#3D6491" stroke-width="1" stroke-opacity="0.049"/>
  </g>
</svg>