<svg xmlns="http://www.w3.org/2000/svg" width="1600" height="900" viewBox="0 0 1600 900" role="img" aria-label="">
  <defs>
    <radialGradient id="sg1" cx="85%" cy="50%" r="75%">
      <stop offset="0%" stop-color="#1E3A5F" stop-opacity="0.9"/>
      <stop offset="100%" stop-color="#0F1B2D" stop-opacity="0"/>
    </radialGradient>
  </defs>
  <rect width="1600" height="900" fill="#0F1B2D"/>
  <rect width="1600" height="900" fill="url(#sg1)"/>
  <!-- voice: arcs radiating from a single point -->
  <g fill="none" stroke="#3D6491" stroke-width="2">
    <path d="M1245 330 A170 170 0 0 1 1245 570" opacity="0.7"/>
    <path d="M1300 265 A255 255 0 0 1 1300 635" opacity="0.5"/>
    <path d="M1355 200 A340 340 0 0 1 1355 700" opacity="0.35"/>
    <path d="M1410 135 A425 425 0 0 1 1410 765" opacity="0.2"/>
  </g>
  <circle cx="1160" cy="450" r="10" fill="#E0A951" opacity="0.95"/>
  <circle cx="1160" cy="450" r="30" fill="none" stroke="#E0A951" stroke-opacity="0.45" stroke-width="2"/>
  <g fill="#3D6491" opacity="0.4">
    <circle cx="300" cy="620" r="5"/><circle cx="420" cy="680" r="5"/><circle cx="540" cy="610" r="5"/>
    <circle cx="360" cy="740" r="5"/><circle cx="500" cy="750" r="5"/><circle cx="640" cy="700" r="5"/>
    <circle cx="240" cy="700" r="5"/><circle cx="600 " cy="780" r="5"/>
  </g>
</svg>
