<svg xmlns="http://www.w3.org/2000/svg" width="1600" height="900" viewBox="0 0 1600 900" role="img" aria-label="">
  <defs>
    <radialGradient id="wg1" cx="20%" cy="20%" r="80%">
      <stop offset="0%" stop-color="#1E3A5F" stop-opacity="0.8"/>
      <stop offset="100%" stop-color="#0F1B2D" stop-opacity="0"/>
    </radialGradient>
  </defs>
  <rect width="1600" height="900" fill="#0F1B2D"/>
  <rect width="1600" height="900" fill="url(#wg1)"/>
  <!-- blueprint: fine grid with structural blocks -->
  <g stroke="#3D6491" stroke-opacity="0.18" stroke-width="1">
    <path d="M0 150 H1600 M0 300 H1600 M0 450 H1600 M0 600 H1600 M0 750 H1600"/>
    <path d="M200 0 V900 M400 0 V900 M600 0 V900 M800 0 V900 M1000 0 V900 M1200 0 V900 M1400 0 V900"/>
  </g>
  <g fill="none" stroke="#3D6491" stroke-width="2" opacity="0.6">
    <rect x="1000" y="300" width="400" height="300" rx="6"/>
    <rect x="1080" y="380" width="240" height="140" rx="4"/>
    <path d="M1000 450 H880 M880 450 V600 H600 M1400 380 H1520"/>
    <circle cx="600" cy="600" r="8"/>
    <circle cx="1520" cy="380" r="8"/>
  </g>
  <rect x="1080" y="380" width="240" height="140" rx="4" fill="#3D6491" opacity="0.12"/>
  <path d="M1000 300 L1400 300" stroke="#E0A951" stroke-width="2.5" opacity="0.75"/>
  <circle cx="1200" cy="450" r="6" fill="#E0A951" opacity="0.9"/>
</svg>
